<?xml version="1.0" encoding="utf-8"?>
<!-- Generator: Adobe Illustrator 27.2.0, SVG Export Plug-In . SVG Version: 6.00 Build 0)  -->
<svg version="1.1" id="Capa_1" xmlns="http://www.w3.org/2000/svg" xmlns:xlink="http://www.w3.org/1999/xlink" x="0px" y="0px"
	 viewBox="0 0 1200 1200" style="enable-background:new 0 0 1200 1200;" xml:space="preserve">
<style type="text/css">
	.st0{fill:#078FCB;}
	.st1{fill:#264F91;}
</style>
<g>
	<g>
		<path class="st0" d="M263.6,951.9v-33.1h-12.4v-4.4H281v4.4h-12.4v33.1H263.6z"/>
		<path class="st0" d="M286.2,951.9v-37.5h16.6c3.3,0,5.9,0.3,7.6,1c1.7,0.7,3.1,1.9,4.2,3.6c1,1.7,1.6,3.6,1.6,5.7
			c0,2.7-0.9,4.9-2.6,6.7c-1.7,1.8-4.4,3-8,3.5c1.3,0.6,2.3,1.3,3,1.9c1.4,1.3,2.8,3,4.1,5l6.5,10.2H313l-5-7.8
			c-1.5-2.3-2.6-4-3.6-5.2c-0.9-1.2-1.8-2-2.5-2.5c-0.7-0.5-1.5-0.8-2.3-1c-0.6-0.1-1.5-0.2-2.8-0.2h-5.8v16.7H286.2z M291.1,930.9
			h10.7c2.3,0,4-0.2,5.3-0.7c1.3-0.5,2.3-1.2,2.9-2.3c0.7-1,1-2.2,1-3.4c0-1.8-0.6-3.2-1.9-4.4c-1.3-1.1-3.3-1.7-6.1-1.7h-11.9
			V930.9z"/>
		<path class="st0" d="M319.8,951.9l14.4-37.5h5.3l15.4,37.5h-5.7l-4.4-11.4h-15.7l-4.1,11.4H319.8z M330.6,936.5h12.7l-3.9-10.4
			c-1.2-3.2-2.1-5.7-2.7-7.8c-0.5,2.4-1.2,4.8-2,7.2L330.6,936.5z"/>
		<path class="st0" d="M358.8,951.9v-37.5h5.1l19.7,29.5v-29.5h4.8v37.5h-5.1l-19.7-29.5v29.5H358.8z"/>
		<path class="st0" d="M395.1,939.9l4.7-0.4c0.2,1.9,0.7,3.4,1.5,4.6c0.8,1.2,2.1,2.2,3.8,2.9c1.7,0.7,3.6,1.1,5.8,1.1
			c1.9,0,3.6-0.3,5-0.8c1.4-0.6,2.5-1.3,3.2-2.3c0.7-1,1.1-2.1,1.1-3.2c0-1.2-0.3-2.2-1-3.1c-0.7-0.9-1.8-1.6-3.4-2.2
			c-1-0.4-3.2-1-6.7-1.8c-3.4-0.8-5.9-1.6-7.2-2.3c-1.8-0.9-3.1-2.1-4-3.5c-0.9-1.4-1.3-2.9-1.3-4.7c0-1.9,0.5-3.7,1.6-5.3
			c1.1-1.6,2.6-2.9,4.7-3.7c2.1-0.9,4.4-1.3,6.9-1.3c2.8,0,5.2,0.4,7.4,1.3c2.1,0.9,3.8,2.2,4.9,4c1.1,1.7,1.8,3.7,1.8,5.9l-4.8,0.4
			c-0.3-2.4-1.1-4.2-2.6-5.4c-1.5-1.2-3.7-1.8-6.5-1.8c-3,0-5.2,0.6-6.6,1.7c-1.4,1.1-2.1,2.4-2.1,4c0,1.3,0.5,2.5,1.5,3.3
			c1,0.9,3.5,1.8,7.5,2.7c4,0.9,6.8,1.7,8.3,2.4c2.2,1,3.8,2.3,4.8,3.8c1,1.5,1.6,3.3,1.6,5.3c0,2-0.6,3.9-1.7,5.6
			c-1.1,1.8-2.8,3.1-4.9,4.1c-2.1,1-4.6,1.5-7.2,1.5c-3.4,0-6.2-0.5-8.5-1.5c-2.3-1-4.1-2.5-5.4-4.5
			C395.8,944.6,395.1,942.4,395.1,939.9z"/>
		<path class="st0" d="M431.7,951.9v-37.5h14.2c2.5,0,4.4,0.1,5.7,0.4c1.8,0.3,3.4,0.9,4.6,1.8c1.2,0.9,2.2,2.1,3,3.6
			c0.8,1.6,1.1,3.3,1.1,5.1c0,3.2-1,5.9-3,8.1c-2,2.2-5.7,3.3-11,3.3h-9.6v15.3H431.7z M436.7,932.2h9.7c3.2,0,5.5-0.6,6.8-1.8
			c1.3-1.2,2-2.9,2-5c0-1.6-0.4-2.9-1.2-4c-0.8-1.1-1.8-1.9-3.1-2.2c-0.8-0.2-2.4-0.3-4.6-0.3h-9.6V932.2z"/>
		<path class="st0" d="M465.1,933.6c0-6.2,1.7-11.1,5-14.6c3.3-3.5,7.7-5.3,12.9-5.3c3.5,0,6.6,0.8,9.4,2.5c2.8,1.7,4.9,4,6.4,6.9
			c1.5,3,2.2,6.3,2.2,10.1c0,3.8-0.8,7.2-2.3,10.2c-1.5,3-3.7,5.3-6.5,6.8c-2.8,1.5-5.9,2.3-9.1,2.3c-3.5,0-6.7-0.9-9.5-2.6
			c-2.8-1.7-4.9-4-6.3-7C465.9,940.1,465.1,936.9,465.1,933.6z M470.3,933.7c0,4.5,1.2,8.1,3.6,10.7c2.4,2.6,5.5,3.9,9.1,3.9
			c3.7,0,6.8-1.3,9.2-3.9c2.4-2.6,3.6-6.4,3.6-11.2c0-3.1-0.5-5.7-1.5-8c-1-2.3-2.5-4-4.5-5.3c-2-1.3-4.2-1.9-6.7-1.9
			c-3.5,0-6.5,1.2-9.1,3.6C471.5,924,470.3,928.1,470.3,933.7z"/>
		<path class="st0" d="M507.5,951.9v-37.5h16.6c3.3,0,5.9,0.3,7.6,1s3.1,1.9,4.2,3.6c1,1.7,1.6,3.6,1.6,5.7c0,2.7-0.9,4.9-2.6,6.7
			c-1.7,1.8-4.4,3-8,3.5c1.3,0.6,2.3,1.3,3,1.9c1.5,1.3,2.8,3,4.1,5l6.5,10.2h-6.2l-5-7.8c-1.5-2.3-2.6-4-3.6-5.2
			c-0.9-1.2-1.8-2-2.5-2.5c-0.7-0.5-1.5-0.8-2.3-1c-0.6-0.1-1.5-0.2-2.8-0.2h-5.8v16.7H507.5z M512.5,930.9h10.7
			c2.3,0,4-0.2,5.3-0.7c1.3-0.5,2.3-1.2,2.9-2.3c0.7-1,1-2.2,1-3.4c0-1.8-0.6-3.2-1.9-4.4c-1.3-1.1-3.3-1.7-6.1-1.7h-11.9V930.9z"/>
		<path class="st0" d="M553.9,951.9v-33.1h-12.4v-4.4h29.7v4.4h-12.4v33.1H553.9z"/>
		<path class="st0" d="M576.4,951.9v-37.5h27.1v4.4h-22.2v11.5h20.8v4.4h-20.8v12.8h23v4.4H576.4z"/>
		<path class="st0" d="M635.5,951.9V936L621,914.4h6l7.4,11.3c1.4,2.1,2.6,4.2,3.8,6.3c1.1-2,2.5-4.2,4.1-6.6l7.3-11h5.8l-15,21.6
			v15.9H635.5z"/>
		<path class="st0" d="M673.3,951.9v-37.5h5v33.1h18.5v4.4H673.3z"/>
		<path class="st0" d="M701.1,933.6c0-6.2,1.7-11.1,5-14.6c3.3-3.5,7.7-5.3,12.9-5.3c3.5,0,6.6,0.8,9.4,2.5c2.8,1.7,4.9,4,6.4,6.9
			c1.5,3,2.2,6.3,2.2,10.1c0,3.8-0.8,7.2-2.3,10.2c-1.5,3-3.7,5.3-6.5,6.8c-2.8,1.5-5.9,2.3-9.1,2.3c-3.5,0-6.7-0.9-9.5-2.6
			c-2.8-1.7-4.9-4-6.3-7C701.8,940.1,701.1,936.9,701.1,933.6z M706.2,933.7c0,4.5,1.2,8.1,3.6,10.7c2.4,2.6,5.5,3.9,9.1,3.9
			c3.7,0,6.8-1.3,9.2-3.9c2.4-2.6,3.6-6.4,3.6-11.2c0-3.1-0.5-5.7-1.5-8c-1-2.3-2.5-4-4.5-5.3c-2-1.3-4.2-1.9-6.7-1.9
			c-3.5,0-6.5,1.2-9.1,3.6C707.5,924,706.2,928.1,706.2,933.7z"/>
		<path class="st0" d="M760.9,937.2v-4.4l15.9,0v13.9c-2.4,1.9-5,3.4-7.5,4.4s-5.3,1.5-8,1.5c-3.7,0-7-0.8-10-2.4
			c-3-1.6-5.3-3.9-6.8-6.8c-1.5-3-2.3-6.3-2.3-10c0-3.7,0.8-7.1,2.3-10.2c1.5-3.2,3.7-5.5,6.6-7.1c2.9-1.5,6.2-2.3,9.9-2.3
			c2.7,0,5.2,0.4,7.4,1.3c2.2,0.9,3.9,2.1,5.2,3.7c1.2,1.6,2.2,3.6,2.8,6.1l-4.5,1.2c-0.6-1.9-1.3-3.4-2.1-4.5c-0.8-1.1-2-2-3.6-2.6
			c-1.6-0.7-3.3-1-5.2-1c-2.3,0-4.2,0.3-5.9,1c-1.7,0.7-3,1.6-4,2.7c-1,1.1-1.8,2.4-2.4,3.7c-1,2.3-1.4,4.8-1.4,7.5
			c0,3.3,0.6,6.1,1.7,8.4c1.2,2.3,2.8,3.9,5,5c2.2,1.1,4.5,1.6,7,1.6c2.1,0,4.2-0.4,6.3-1.2c2-0.8,3.6-1.7,4.7-2.6v-7H760.9z"/>
		<path class="st0" d="M783.7,912.1l3.4-7.2h6l-5.6,7.2H783.7z M785,951.9v-37.5h5v37.5H785z"/>
		<path class="st0" d="M797,939.9l4.7-0.4c0.2,1.9,0.7,3.4,1.5,4.6c0.8,1.2,2.1,2.2,3.8,2.9c1.7,0.7,3.6,1.1,5.8,1.1
			c1.9,0,3.6-0.3,5-0.8c1.4-0.6,2.5-1.3,3.2-2.3c0.7-1,1.1-2.1,1.1-3.2c0-1.2-0.3-2.2-1-3.1c-0.7-0.9-1.8-1.6-3.4-2.2
			c-1-0.4-3.2-1-6.7-1.8c-3.4-0.8-5.9-1.6-7.2-2.3c-1.8-0.9-3.1-2.1-4-3.5c-0.9-1.4-1.3-2.9-1.3-4.7c0-1.9,0.5-3.7,1.6-5.3
			c1.1-1.6,2.6-2.9,4.7-3.7c2.1-0.9,4.4-1.3,6.9-1.3c2.8,0,5.2,0.4,7.4,1.3c2.1,0.9,3.8,2.2,4.9,4c1.1,1.7,1.8,3.7,1.8,5.9l-4.8,0.4
			c-0.3-2.4-1.1-4.2-2.6-5.4c-1.5-1.2-3.7-1.8-6.5-1.8c-3,0-5.2,0.6-6.6,1.7c-1.4,1.1-2.1,2.4-2.1,4c0,1.3,0.5,2.5,1.5,3.3
			c1,0.9,3.5,1.8,7.5,2.7c4,0.9,6.8,1.7,8.3,2.4c2.2,1,3.8,2.3,4.8,3.8c1,1.5,1.6,3.3,1.6,5.3c0,2-0.6,3.9-1.7,5.6
			c-1.1,1.8-2.8,3.1-4.9,4.1c-2.1,1-4.6,1.5-7.2,1.5c-3.4,0-6.2-0.5-8.5-1.5c-2.3-1-4.1-2.5-5.4-4.5
			C797.8,944.6,797.1,942.4,797,939.9z"/>
		<path class="st0" d="M843.2,951.9v-33.1h-12.4v-4.4h29.7v4.4h-12.4v33.1H843.2z"/>
		<path class="st0" d="M866.5,951.9v-37.5h5v37.5H866.5z"/>
		<path class="st0" d="M907,938.8l5,1.3c-1,4.1-2.9,7.2-5.6,9.3c-2.7,2.1-6,3.2-9.9,3.2c-4,0-7.3-0.8-9.9-2.5
			c-2.5-1.6-4.5-4-5.8-7.2c-1.3-3.1-2-6.5-2-10.1c0-3.9,0.7-7.3,2.2-10.2c1.5-2.9,3.6-5.1,6.4-6.6c2.8-1.5,5.8-2.3,9.1-2.3
			c3.8,0,6.9,1,9.5,2.9c2.6,1.9,4.3,4.6,5.3,8.1l-4.9,1.2c-0.9-2.7-2.1-4.7-3.8-6c-1.7-1.2-3.7-1.9-6.2-1.9c-2.9,0-5.3,0.7-7.2,2.1
			c-1.9,1.4-3.3,3.2-4.1,5.6c-0.8,2.3-1.2,4.7-1.2,7.2c0,3.2,0.5,6,1.4,8.4c0.9,2.4,2.4,4.2,4.3,5.3c2,1.2,4.1,1.8,6.4,1.8
			c2.8,0,5.1-0.8,7.1-2.4C905,944.3,906.3,941.9,907,938.8z"/>
		<path class="st0" d="M914,951.9l14.4-37.5h5.3l15.4,37.5h-5.7l-4.4-11.4h-15.7l-4.1,11.4H914z M924.8,936.5h12.7l-3.9-10.4
			c-1.2-3.2-2.1-5.7-2.7-7.8c-0.5,2.4-1.2,4.8-2,7.2L924.8,936.5z"/>
	</g>
</g>
<g>
	<g>
		<path class="st1" d="M263.9,872.2c-8.4-9.3-12.6-22.7-12.6-40.2v-12.3h32v14.8c0,14,5.8,20.9,17.5,20.9c5.7,0,10.1-1.7,13.1-5.1
			c3-3.4,4.5-8.9,4.5-16.5c0-9-2.1-17-6.2-23.8c-4.1-6.9-11.7-15.1-22.8-24.8c-14-12.3-23.7-23.4-29.2-33.4
			c-5.5-9.9-8.3-21.2-8.3-33.7c0-17,4.3-30.2,12.9-39.5c8.6-9.3,21.1-14,37.5-14c16.2,0,28.5,4.7,36.8,14
			c8.3,9.3,12.5,22.7,12.5,40.1v8.9h-32v-11.1c0-7.4-1.4-12.8-4.3-16.2c-2.9-3.4-7.1-5.1-12.6-5.1c-11.3,0-16.9,6.9-16.9,20.6
			c0,7.8,2.1,15.1,6.3,21.8c4.2,6.8,11.8,15,22.9,24.6c14.2,12.3,23.9,23.5,29.2,33.5c5.3,10.1,8,21.8,8,35.4
			c0,17.6-4.4,31.2-13.1,40.6c-8.7,9.4-21.4,14.2-38,14.2C284.7,886.2,272.3,881.6,263.9,872.2z"/>
		<path class="st1" d="M371.6,667.8h92.3v30.8h-58.5v56.9h46.5v30.8h-46.5v66.1h58.5v30.8h-92.3V667.8z"/>
		<path class="st1" d="M493.7,872.2c-8.6-9.3-12.9-22.7-12.9-40.2V718.8c0-17.4,4.3-30.8,12.9-40.1c8.6-9.3,21.1-14,37.5-14
			c16.4,0,28.9,4.7,37.5,14c8.6,9.3,12.9,22.7,12.9,40.1v18.5h-32v-20.6c0-14.2-5.8-21.2-17.5-21.2c-11.7,0-17.5,7.1-17.5,21.2
			v117.8c0,14,5.8,20.9,17.5,20.9c11.7,0,17.5-7,17.5-20.9v-42.2h-16.9v-30.8h48.9v70.5c0,17.4-4.3,30.8-12.9,40.2
			c-8.6,9.3-21.1,14-37.5,14C514.8,886.2,502.3,881.6,493.7,872.2z"/>
		<path class="st1" d="M603.5,667.8h33.8v87.7h36.3v-87.7h33.8v215.4h-33.8v-96.9h-36.3v96.9h-33.8V667.8z"/>
		<path class="st1" d="M732.8,667.8h92.3v30.8h-58.5v56.9h46.5v30.8h-46.5v66.1h58.5v30.8h-92.3V667.8z"/>
		<path class="st1" d="M844.4,667.8h50.1c17.4,0,30.2,4.1,38.2,12.2c8,8.1,12,20.6,12,37.4v13.2c0,22.4-7.4,36.5-22.2,42.5v0.6
			c8.2,2.5,14,7.5,17.4,15.1c3.4,7.6,5.1,17.7,5.1,30.5V857c0,6.2,0.2,11.1,0.6,14.9c0.4,3.8,1.4,7.5,3.1,11.2h-34.5
			c-1.2-3.5-2.1-6.8-2.5-9.8c-0.4-3.1-0.6-8.6-0.6-16.6v-39.4c0-9.8-1.6-16.7-4.8-20.6c-3.2-3.9-8.7-5.8-16.5-5.8h-11.7v92.3h-33.8
			V667.8z M890.6,760.1c6.8,0,11.8-1.7,15.2-5.2c3.4-3.5,5.1-9.3,5.1-17.5v-16.6c0-7.8-1.4-13.4-4.2-16.9c-2.8-3.5-7.1-5.2-13.1-5.2
			h-15.4v61.5H890.6z"/>
	</g>
</g>
<path class="st1" d="M600.5,280.4L741,361.7v58v32v74.8L600,608.2l-141-82.5v-56.6v-32.3v-74.7L600.5,280.4 M600.5,263.5
	l-156.1,90.2V437v32v65.2l155.6,91l155.7-90.2v-83.3v-31.7v-66.6L600.5,263.5L600.5,263.5z"/>
<polygon class="st1" points="608,414.2 599.6,470.3 657.5,436.9 692.3,456.8 692.3,498.1 600.1,550.7 575.5,536.7 547.5,520.1 
	464.9,472.4 464.9,522.4 600,601.4 735.1,523.1 735.1,431.5 657.8,385.4 "/>
<polygon class="st0" points="600.5,287.2 464.9,365.6 464.9,457 544,502.4 590.6,475.5 599,419.5 543.5,451.6 508.6,431.3 
	508.6,391.2 599.9,338.1 624,352.6 653.1,369.1 735.1,416.2 735.1,365.1 "/>
</svg>
